<svg width="34" height="34" viewBox="0 0 34 34" xmlns="http://www.w3.org/2000/svg" class="researchicon">
<g clip-path="url(#clip0_50_3654)">
<path d="M26.2867 22.3943C27.1945 23.1853 28.0878 23.9646 28.9799 24.7424C30.2864 25.8807 31.5934 27.019 32.9007 28.1573C33.8988 29.0275 34.2596 30.4772 33.7984 31.7617C33.3495 33.0241 32.1152 33.9395 30.7798 33.9985C29.5548 34.0524 28.5604 33.6068 27.7966 32.6617C26.0786 30.5364 24.3594 28.4114 22.6392 26.2868C22.5758 26.2091 22.509 26.1342 22.4355 26.0483C18.6005 28.4233 14.5053 29.0424 10.171 27.7475C6.78375 26.7318 4.13997 24.6955 2.2368 21.7648C-1.53923 15.944 -0.439524 8.25817 4.81101 3.63095C10.052 -0.988016 17.9323 -1.21604 23.4308 3.05867C29.3042 7.62201 30.8011 16.1076 26.2867 22.3943ZM3.00211 14.1875C2.9892 20.4021 8.13089 25.4237 14.5243 25.4413C20.7439 25.4578 25.9007 20.3823 25.9186 14.2266C25.936 8.04116 20.8129 2.96449 14.5389 2.94741C8.17241 2.92758 3.01445 7.95524 3.00155 14.1869L3.00211 14.1875Z" fill="#B9B9B9"/>
<path d="M13.7173 5.08936V7.35698C11.6122 7.63237 9.91604 8.61279 8.69683 10.3434C7.85858 11.532 7.46246 12.8616 7.48042 14.3053C7.51913 17.1523 9.42062 19.703 12.1833 20.6554C14.8804 21.5851 18.3686 20.8245 20.3571 17.8738L22.3663 18.9396C20.7633 21.752 16.741 24.1667 12.1547 23.032C7.71551 21.9343 4.70646 17.6849 5.1974 13.2692C5.72874 8.45471 9.72135 5.33776 13.7173 5.08936Z" fill="#DBDBDB"/>
<path d="M15.2506 5.09521C18.2215 5.42239 20.5691 6.73328 22.1951 9.15732C23.9714 11.8055 24.1701 14.6482 23.0664 17.6396C22.4178 17.3157 21.8124 17.015 21.2081 16.712C19.3057 15.7573 17.4027 14.8044 15.4992 13.8534C15.3309 13.7691 15.222 13.6882 15.2232 13.4678C15.2321 10.7717 15.2293 8.07612 15.2299 5.37998C15.2299 5.31223 15.24 5.24062 15.2506 5.09521Z" fill="#DBDBDB"/>
</g>
<defs>
<clipPath id="clip0_50_3654">
<rect width="34" height="34"/>
</clipPath>
</defs>
</svg>
